<?xml version="1.0" encoding="utf-8"?>
<!-- Generator: Adobe Illustrator 25.0.0, SVG Export Plug-In . SVG Version: 6.00 Build 0)  -->
<svg version="1.1" xmlns="http://www.w3.org/2000/svg" xmlns:xlink="http://www.w3.org/1999/xlink" x="0px" y="0px"
	 viewBox="0 0 47 47" style="enable-background:new 0 0 47 47;" xml:space="preserve">
<style type="text/css">
	.st0{fill:#E2E2E2;}
	.st1{fill:url(#SVGID_1_);}
</style>
<g id="_x35_">
	<path class="st0" d="M31.4,10.3H15.6v5.3h-5.3v15.9h5.3v5.3h15.9v-5.3h5.3V15.6h-5.3V10.3z M26.1,26.1h-5.3v-5.3h5.3V26.1z
		 M42,10.3h5.3V-0.3H36.7V5H42V10.3z M47.3,31.4V15.6H42v15.9H47.3z M31.4-0.3H15.6V5h15.9V-0.3z M-0.3,15.6v15.9H5V15.6H-0.3z
		 M15.6,47.3h15.9V42H15.6V47.3z M31.4,36.7V42h5.3v-5.3H31.4z M5,36.7h-5.3v10.6h10.6V42H5V36.7z M10.3,36.7V42h5.3v-5.3H10.3z
		 M36.7,42v5.3h10.6V36.7H42V42H36.7z M36.7,10.3v5.3H42v-5.3H36.7z M36.7,36.7H42v-5.3h-5.3V36.7z M10.3,10.3H5v5.3h5.3V10.3z
		 M10.3,5v-5.3H-0.3v10.6H5V5H10.3z M15.6,10.3V5h-5.3v5.3H15.6z M10.3,31.4H5v5.3h5.3V31.4z M36.7,10.3V5h-5.3v5.3H36.7z"/>
	<linearGradient id="SVGID_1_" gradientUnits="userSpaceOnUse" x1="-618.3208" y1="240" x2="-577.9663" y2="240">
		<stop  offset="0" style="stop-color:#FFFFFF"/>
		<stop  offset="0.4174" style="stop-color:#FDFDFD"/>
		<stop  offset="0.5782" style="stop-color:#F7F6F6"/>
		<stop  offset="0.6947" style="stop-color:#ECEAEA"/>
		<stop  offset="0.7897" style="stop-color:#DCD9D9"/>
		<stop  offset="0.8717" style="stop-color:#C8C2C2"/>
		<stop  offset="0.9435" style="stop-color:#AFA7A7"/>
		<stop  offset="1" style="stop-color:#968C8C"/>
	</linearGradient>
	<rect x="-618.3" y="40" class="st1" width="40.4" height="400"/>
</g>
<g id="Layer_1">
</g>
</svg>
